<svg width="528" height="569" viewBox="0 0 528 569" fill="none" xmlns="http://www.w3.org/2000/svg">
<path fill-rule="evenodd" clip-rule="evenodd" d="M387.722 0.173431C268.828 0.173431 172.445 96.5566 172.445 215.451V223.413C172.445 226.686 172.518 229.942 172.662 233.179C173.056 241.991 165.689 249.46 156.869 249.46C70.2327 249.46 0 319.693 0 406.329V412.131C0 498.767 70.2327 569 156.869 569C225.365 569 283.608 525.099 304.995 463.9C311.535 445.184 331.669 432.269 351.211 435.608C363.078 437.635 375.277 438.691 387.722 438.691C506.617 438.691 603 342.308 603 223.413V215.451C603 96.5566 506.617 0.173431 387.722 0.173431Z" fill="white"/>
</svg>
