<svg width="78" height="17" viewBox="0 0 78 17" fill="none" xmlns="http://www.w3.org/2000/svg">
<path d="M10.4779 7.502C11.3539 7.682 12.0199 8.036 12.4759 8.564C12.9319 9.08 13.1599 9.758 13.1599 10.598C13.1599 11.69 12.7699 12.53 11.9899 13.118C11.2219 13.706 10.0879 14 8.58795 14H3.00795V1.4H8.24595C9.58995 1.4 10.6399 1.676 11.3959 2.228C12.1519 2.78 12.5299 3.578 12.5299 4.622C12.5299 5.33 12.3499 5.93 11.9899 6.422C11.6299 6.902 11.1259 7.262 10.4779 7.502ZM4.32195 7.106H8.17395C9.14595 7.106 9.88995 6.908 10.4059 6.512C10.9339 6.116 11.1979 5.54 11.1979 4.784C11.1979 4.028 10.9339 3.452 10.4059 3.056C9.88995 2.66 9.14595 2.462 8.17395 2.462H4.32195V7.106ZM8.58795 12.938C10.7599 12.938 11.8459 12.128 11.8459 10.508C11.8459 8.924 10.7599 8.132 8.58795 8.132H4.32195V12.938H8.58795ZM16.9044 4.532H18.1824V14H16.9044V4.532ZM17.5524 2.462C17.2884 2.462 17.0664 2.372 16.8864 2.192C16.7064 2.012 16.6164 1.796 16.6164 1.544C16.6164 1.304 16.7064 1.094 16.8864 0.913999C17.0664 0.733999 17.2884 0.643999 17.5524 0.643999C17.8164 0.643999 18.0384 0.733999 18.2184 0.913999C18.3984 1.082 18.4884 1.286 18.4884 1.526C18.4884 1.79 18.3984 2.012 18.2184 2.192C18.0384 2.372 17.8164 2.462 17.5524 2.462ZM31.7802 12.884V16.286H30.5742V14H22.0962V16.286H20.8902V12.884H21.4302C22.0662 12.848 22.4982 12.38 22.7262 11.48C22.9542 10.58 23.1102 9.32 23.1942 7.7L23.3202 4.532H30.3042V12.884H31.7802ZM24.3642 7.772C24.3042 9.116 24.1902 10.226 24.0222 11.102C23.8542 11.966 23.5542 12.56 23.1222 12.884H29.0262V5.666H24.4722L24.3642 7.772ZM45.5749 4.532V14H44.4049V6.512L40.5709 12.848H39.9949L36.1609 6.494V14H34.9909V4.532H36.2869L40.3009 11.354L44.3869 4.532H45.5749ZM49.9316 4.532H51.2096V14H49.9316V4.532ZM50.5796 2.462C50.3156 2.462 50.0936 2.372 49.9136 2.192C49.7336 2.012 49.6436 1.796 49.6436 1.544C49.6436 1.304 49.7336 1.094 49.9136 0.913999C50.0936 0.733999 50.3156 0.643999 50.5796 0.643999C50.8436 0.643999 51.0656 0.733999 51.2456 0.913999C51.4256 1.082 51.5156 1.286 51.5156 1.526C51.5156 1.79 51.4256 2.012 51.2456 2.192C51.0656 2.372 50.8436 2.462 50.5796 2.462ZM55.5734 4.532H56.8514V8.726H62.8094V4.532H64.0874V14H62.8094V9.824H56.8514V14H55.5734V4.532ZM71.6979 4.46C72.9339 4.46 73.8819 4.772 74.5419 5.396C75.2019 6.008 75.5319 6.92 75.5319 8.132V14H74.3079V12.524C74.0199 13.016 73.5939 13.4 73.0299 13.676C72.4779 13.952 71.8179 14.09 71.0499 14.09C69.9939 14.09 69.1539 13.838 68.5299 13.334C67.9059 12.83 67.5939 12.164 67.5939 11.336C67.5939 10.532 67.8819 9.884 68.4579 9.392C69.0459 8.9 69.9759 8.654 71.2479 8.654H74.2539V8.078C74.2539 7.262 74.0259 6.644 73.5699 6.224C73.1139 5.792 72.4479 5.576 71.5719 5.576C70.9719 5.576 70.3959 5.678 69.8439 5.882C69.2919 6.074 68.8179 6.344 68.4219 6.692L67.8459 5.738C68.3259 5.33 68.9019 5.018 69.5739 4.802C70.2459 4.574 70.9539 4.46 71.6979 4.46ZM71.2479 13.082C71.9679 13.082 72.5859 12.92 73.1019 12.596C73.6179 12.26 74.0019 11.78 74.2539 11.156V9.608H71.2839C69.6639 9.608 68.8539 10.172 68.8539 11.3C68.8539 11.852 69.0639 12.29 69.4839 12.614C69.9039 12.926 70.4919 13.082 71.2479 13.082Z" fill="#181C27" fill-opacity="0.6"/>
<path d="M0.883945 15.8H77.1159V16.7H0.883945V15.8Z" fill="#181C27" fill-opacity="0.6"/>
</svg>
