<svg width="63" height="14" viewBox="0 0 63 14" fill="none" xmlns="http://www.w3.org/2000/svg">
<path d="M8.67065 1.966H2.19065L2.20865 13H0.426649V0.399999H8.68865L8.67065 1.966ZM12.6614 13.108C11.7134 13.108 10.8614 12.898 10.1054 12.478C9.34945 12.058 8.75545 11.482 8.32345 10.75C7.90345 10.006 7.69345 9.166 7.69345 8.23C7.69345 7.294 7.90345 6.46 8.32345 5.728C8.75545 4.984 9.34945 4.408 10.1054 4C10.8614 3.58 11.7134 3.37 12.6614 3.37C13.6094 3.37 14.4554 3.58 15.1994 4C15.9554 4.408 16.5434 4.984 16.9634 5.728C17.3954 6.46 17.6114 7.294 17.6114 8.23C17.6114 9.166 17.3954 10.006 16.9634 10.75C16.5434 11.482 15.9554 12.058 15.1994 12.478C14.4554 12.898 13.6094 13.108 12.6614 13.108ZM12.6614 11.596C13.2734 11.596 13.8194 11.458 14.2994 11.182C14.7914 10.894 15.1754 10.498 15.4514 9.994C15.7274 9.478 15.8654 8.89 15.8654 8.23C15.8654 7.57 15.7274 6.988 15.4514 6.484C15.1754 5.968 14.7914 5.572 14.2994 5.296C13.8194 5.02 13.2734 4.882 12.6614 4.882C12.0494 4.882 11.4974 5.02 11.0054 5.296C10.5254 5.572 10.1414 5.968 9.85345 6.484C9.57745 6.988 9.43945 7.57 9.43945 8.23C9.43945 8.89 9.57745 9.478 9.85345 9.994C10.1414 10.498 10.5254 10.894 11.0054 11.182C11.4974 11.458 12.0494 11.596 12.6614 11.596ZM27.5851 4.972H24.0931V13H22.3651V4.972H18.8731V3.46H27.5851V4.972ZM33.7362 13.108C32.7882 13.108 31.9362 12.898 31.1802 12.478C30.4242 12.058 29.8302 11.482 29.3982 10.75C28.9782 10.006 28.7682 9.166 28.7682 8.23C28.7682 7.294 28.9782 6.46 29.3982 5.728C29.8302 4.984 30.4242 4.408 31.1802 4C31.9362 3.58 32.7882 3.37 33.7362 3.37C34.6842 3.37 35.5302 3.58 36.2742 4C37.0302 4.408 37.6182 4.984 38.0382 5.728C38.4702 6.46 38.6862 7.294 38.6862 8.23C38.6862 9.166 38.4702 10.006 38.0382 10.75C37.6182 11.482 37.0302 12.058 36.2742 12.478C35.5302 12.898 34.6842 13.108 33.7362 13.108ZM33.7362 11.596C34.3482 11.596 34.8942 11.458 35.3742 11.182C35.8662 10.894 36.2502 10.498 36.5262 9.994C36.8022 9.478 36.9402 8.89 36.9402 8.23C36.9402 7.57 36.8022 6.988 36.5262 6.484C36.2502 5.968 35.8662 5.572 35.3742 5.296C34.8942 5.02 34.3482 4.882 33.7362 4.882C33.1242 4.882 32.5722 5.02 32.0802 5.296C31.6002 5.572 31.2162 5.968 30.9282 6.484C30.6522 6.988 30.5142 7.57 30.5142 8.23C30.5142 8.89 30.6522 9.478 30.9282 9.994C31.2162 10.498 31.6002 10.894 32.0802 11.182C32.5722 11.458 33.1242 11.596 33.7362 11.596ZM48.3995 8.05C49.6355 8.362 50.2535 9.136 50.2535 10.372C50.2535 11.212 49.9355 11.86 49.2995 12.316C48.6755 12.772 47.7395 13 46.4915 13H41.9015V3.46H46.3295C47.4575 3.46 48.3395 3.676 48.9755 4.108C49.6115 4.528 49.9295 5.128 49.9295 5.908C49.9295 6.412 49.7915 6.85 49.5155 7.222C49.2515 7.582 48.8795 7.858 48.3995 8.05ZM43.5935 7.564H46.1855C46.8455 7.564 47.3435 7.444 47.6795 7.204C48.0275 6.964 48.2015 6.616 48.2015 6.16C48.2015 5.248 47.5295 4.792 46.1855 4.792H43.5935V7.564ZM46.3655 11.668C47.0855 11.668 47.6255 11.554 47.9855 11.326C48.3455 11.098 48.5255 10.744 48.5255 10.264C48.5255 9.772 48.3575 9.406 48.0215 9.166C47.6975 8.926 47.1815 8.806 46.4735 8.806H43.5935V11.668H46.3655ZM57.7641 13.108C56.8161 13.108 55.9641 12.898 55.2081 12.478C54.4521 12.058 53.8581 11.482 53.4261 10.75C53.0061 10.006 52.7961 9.166 52.7961 8.23C52.7961 7.294 53.0061 6.46 53.4261 5.728C53.8581 4.984 54.4521 4.408 55.2081 4C55.9641 3.58 56.8161 3.37 57.7641 3.37C58.7121 3.37 59.5581 3.58 60.3021 4C61.0581 4.408 61.6461 4.984 62.0661 5.728C62.4981 6.46 62.7141 7.294 62.7141 8.23C62.7141 9.166 62.4981 10.006 62.0661 10.75C61.6461 11.482 61.0581 12.058 60.3021 12.478C59.5581 12.898 58.7121 13.108 57.7641 13.108ZM57.7641 11.596C58.3761 11.596 58.9221 11.458 59.4021 11.182C59.8941 10.894 60.2781 10.498 60.5541 9.994C60.8301 9.478 60.9681 8.89 60.9681 8.23C60.9681 7.57 60.8301 6.988 60.5541 6.484C60.2781 5.968 59.8941 5.572 59.4021 5.296C58.9221 5.02 58.3761 4.882 57.7641 4.882C57.1521 4.882 56.6001 5.02 56.1081 5.296C55.6281 5.572 55.2441 5.968 54.9561 6.484C54.6801 6.988 54.5421 7.57 54.5421 8.23C54.5421 8.89 54.6801 9.478 54.9561 9.994C55.2441 10.498 55.6281 10.894 56.1081 11.182C56.6001 11.458 57.1521 11.596 57.7641 11.596Z" fill="white"/>
</svg>
