<svg width="510" height="502" viewBox="0 0 510 502" fill="none" xmlns="http://www.w3.org/2000/svg">
<path fill-rule="evenodd" clip-rule="evenodd" d="M348.5 0C241.633 0 155 86.6329 155 193.5C155 197.366 155.113 201.206 155.337 205.016C155.811 213.083 149.08 220 141 220C63.1279 220 0 283.128 0 361C0 438.872 63.1279 502 141 502C200.625 502 251.606 464.99 272.224 412.69C279.434 394.402 299.45 381.762 318.879 384.747C328.536 386.23 338.428 387 348.5 387C455.367 387 542 300.367 542 193.5C542 86.6329 455.367 0 348.5 0Z" fill="#FF6B08"/>
</svg>
