<svg width="22" height="22" viewBox="0 0 22 22" fill="none" xmlns="http://www.w3.org/2000/svg">
<g clip-path="url(#clip0)">
<path d="M21.5417 21.0834H0.458348C0.205348 21.0834 0 21.2887 0 21.5417C0 21.7947 0.205348 22 0.458348 22H21.5417C21.7947 22 22 21.7947 22 21.5417C22 21.2887 21.7947 21.0834 21.5417 21.0834Z" fill="white"/>
<path d="M4.12497 15.5834H1.37497C1.12197 15.5834 0.916626 15.7887 0.916626 16.0417V21.5417C0.916626 21.7947 1.12197 22 1.37497 22H4.12497C4.37797 22 4.58332 21.7947 4.58332 21.5417V16.0417C4.58332 15.7887 4.37797 15.5834 4.12497 15.5834ZM3.66663 21.0834H1.83332V16.5H3.66667V21.0834H3.66663Z" fill="white"/>
<path d="M9.62497 11H6.87497C6.62197 11 6.41663 11.2053 6.41663 11.4583V21.5417C6.41663 21.7947 6.62197 22 6.87497 22H9.62497C9.87797 22 10.0833 21.7947 10.0833 21.5417V11.4583C10.0833 11.2053 9.87797 11 9.62497 11ZM9.16663 21.0833H7.33328V11.9167H9.16663V21.0833Z" fill="white"/>
<path d="M15.125 12.8334H12.375C12.122 12.8334 11.9166 13.0387 11.9166 13.2917V21.5417C11.9166 21.7947 12.122 22.0001 12.375 22.0001H15.125C15.378 22.0001 15.5833 21.7947 15.5833 21.5417V13.2917C15.5833 13.0387 15.378 12.8334 15.125 12.8334ZM14.6666 21.0834H12.8333V13.75H14.6666V21.0834Z" fill="white"/>
<path d="M20.625 7.33337H17.875C17.622 7.33337 17.4166 7.53872 17.4166 7.79172V21.5417C17.4166 21.7947 17.622 22.0001 17.875 22.0001H20.625C20.878 22.0001 21.0833 21.7947 21.0833 21.5417V7.79172C21.0833 7.53868 20.878 7.33337 20.625 7.33337ZM20.1666 21.0834H18.3333V8.25003H20.1666V21.0834Z" fill="white"/>
<path d="M2.74997 8.25C1.73888 8.25 0.916626 9.07225 0.916626 10.0833C0.916626 11.0944 1.73888 11.9167 2.74997 11.9167C3.76107 11.9167 4.58332 11.0944 4.58332 10.0833C4.58332 9.07225 3.76107 8.25 2.74997 8.25ZM2.74997 11C2.24397 11 1.83332 10.5884 1.83332 10.0833C1.83332 9.57825 2.24397 9.1667 2.74997 9.1667C3.25597 9.1667 3.66663 9.57829 3.66663 10.0833C3.66663 10.5884 3.25597 11 2.74997 11Z" fill="white"/>
<path d="M8.24997 3.66663C7.23888 3.66663 6.41663 4.48888 6.41663 5.49997C6.41663 6.51107 7.23888 7.33332 8.24997 7.33332C9.26107 7.33332 10.0833 6.51107 10.0833 5.49997C10.0833 4.48888 9.26107 3.66663 8.24997 3.66663ZM8.24997 6.41662C7.74397 6.41662 7.33332 6.00503 7.33332 5.49997C7.33332 4.99487 7.74397 4.58332 8.24997 4.58332C8.75597 4.58332 9.16663 4.99492 9.16663 5.49997C9.16663 6.00507 8.75597 6.41662 8.24997 6.41662Z" fill="white"/>
<path d="M13.75 5.5C12.7389 5.5 11.9166 6.32225 11.9166 7.33335C11.9166 8.34445 12.7389 9.1667 13.75 9.1667C14.7611 9.1667 15.5833 8.34445 15.5833 7.33335C15.5833 6.32225 14.7611 5.5 13.75 5.5ZM13.75 8.25C13.244 8.25 12.8333 7.8384 12.8333 7.33335C12.8333 6.82825 13.244 6.4167 13.75 6.4167C14.256 6.4167 14.6666 6.82829 14.6666 7.33335C14.6666 7.8384 14.256 8.25 13.75 8.25Z" fill="white"/>
<path d="M19.25 0C18.2389 0 17.4166 0.82225 17.4166 1.83335C17.4166 2.84445 18.2389 3.6667 19.25 3.6667C20.2611 3.6667 21.0833 2.84445 21.0833 1.83335C21.0833 0.82225 20.2611 0 19.25 0ZM19.25 2.75C18.744 2.75 18.3333 2.3384 18.3333 1.83335C18.3333 1.32825 18.744 0.916695 19.25 0.916695C19.756 0.916695 20.1666 1.32829 20.1666 1.83335C20.1666 2.3384 19.756 2.75 19.25 2.75Z" fill="white"/>
<path d="M18.6029 2.4805C18.4241 2.30175 18.1335 2.30175 17.9548 2.4805L14.3981 6.03715C14.2194 6.2159 14.2194 6.5065 14.3981 6.68525C14.4879 6.77415 14.6053 6.8191 14.7226 6.8191C14.839 6.8191 14.9564 6.7751 15.0462 6.68525L18.6029 3.1286C18.7816 2.94985 18.7816 2.65925 18.6029 2.4805Z" fill="white"/>
<path d="M12.6417 6.27545L9.6974 5.4358C9.4508 5.3643 9.20055 5.5073 9.1318 5.75115C9.06215 5.99499 9.2033 6.24799 9.4462 6.31765L12.3905 7.1573C12.4327 7.1692 12.4749 7.1747 12.5161 7.1747C12.716 7.1747 12.8993 7.0436 12.957 6.84195C13.0267 6.59905 12.8856 6.3451 12.6417 6.27545Z" fill="white"/>
<path d="M7.535 6.07107C7.37735 5.87307 7.0895 5.84097 6.8915 5.99772L3.43565 8.75322C3.23765 8.91182 3.20465 9.19963 3.36325 9.39763C3.454 9.51128 3.58785 9.56997 3.72165 9.56997C3.82156 9.56997 3.9224 9.53697 4.00675 9.47097L7.4626 6.71547C7.6606 6.55688 7.6936 6.26907 7.535 6.07107Z" fill="white"/>
</g>
<defs>
<clipPath id="clip0">
<rect width="22" height="22" fill="white"/>
</clipPath>
</defs>
</svg>
