<svg width="52" height="52" viewBox="0 0 52 52" fill="none" xmlns="http://www.w3.org/2000/svg">
<g filter="url(#filter0_d)">
<rect x="4" y="1" width="44" height="44" rx="22" fill="#FF6B08"/>
</g>
<g clip-path="url(#clip0)">
<path d="M36.5417 33.0834H15.4583C15.2053 33.0834 15 33.2887 15 33.5417C15 33.7947 15.2053 34 15.4583 34H36.5417C36.7947 34 37 33.7947 37 33.5417C37 33.2887 36.7947 33.0834 36.5417 33.0834Z" fill="white"/>
<path d="M19.125 27.5834H16.375C16.122 27.5834 15.9166 27.7887 15.9166 28.0417V33.5417C15.9166 33.7947 16.122 34 16.375 34H19.125C19.378 34 19.5833 33.7947 19.5833 33.5417V28.0417C19.5833 27.7887 19.378 27.5834 19.125 27.5834ZM18.6666 33.0834H16.8333V28.5H18.6667V33.0834H18.6666Z" fill="white"/>
<path d="M24.625 23H21.875C21.622 23 21.4166 23.2053 21.4166 23.4583V33.5417C21.4166 33.7947 21.622 34 21.875 34H24.625C24.878 34 25.0833 33.7947 25.0833 33.5417V23.4583C25.0833 23.2053 24.878 23 24.625 23ZM24.1666 33.0833H22.3333V23.9167H24.1666V33.0833Z" fill="white"/>
<path d="M30.125 24.8334H27.375C27.122 24.8334 26.9166 25.0387 26.9166 25.2917V33.5417C26.9166 33.7947 27.122 34.0001 27.375 34.0001H30.125C30.378 34.0001 30.5833 33.7947 30.5833 33.5417V25.2917C30.5833 25.0387 30.378 24.8334 30.125 24.8334ZM29.6666 33.0834H27.8333V25.75H29.6666V33.0834Z" fill="white"/>
<path d="M35.625 19.3334H32.875C32.622 19.3334 32.4166 19.5387 32.4166 19.7917V33.5417C32.4166 33.7947 32.622 34.0001 32.875 34.0001H35.625C35.878 34.0001 36.0833 33.7947 36.0833 33.5417V19.7917C36.0833 19.5387 35.878 19.3334 35.625 19.3334ZM35.1666 33.0834H33.3333V20.25H35.1666V33.0834Z" fill="white"/>
<path d="M17.75 20.25C16.7389 20.25 15.9166 21.0723 15.9166 22.0833C15.9166 23.0944 16.7389 23.9167 17.75 23.9167C18.7611 23.9167 19.5833 23.0944 19.5833 22.0833C19.5833 21.0723 18.7611 20.25 17.75 20.25ZM17.75 23C17.244 23 16.8333 22.5884 16.8333 22.0833C16.8333 21.5783 17.244 21.1667 17.75 21.1667C18.256 21.1667 18.6666 21.5783 18.6666 22.0833C18.6666 22.5884 18.256 23 17.75 23Z" fill="white"/>
<path d="M23.25 15.6666C22.2389 15.6666 21.4166 16.4889 21.4166 17.5C21.4166 18.5111 22.2389 19.3333 23.25 19.3333C24.2611 19.3333 25.0833 18.5111 25.0833 17.5C25.0833 16.4889 24.2611 15.6666 23.25 15.6666ZM23.25 18.4166C22.744 18.4166 22.3333 18.005 22.3333 17.5C22.3333 16.9949 22.744 16.5833 23.25 16.5833C23.756 16.5833 24.1666 16.9949 24.1666 17.5C24.1666 18.0051 23.756 18.4166 23.25 18.4166Z" fill="white"/>
<path d="M28.75 17.5C27.7389 17.5 26.9166 18.3223 26.9166 19.3333C26.9166 20.3444 27.7389 21.1667 28.75 21.1667C29.7611 21.1667 30.5833 20.3444 30.5833 19.3333C30.5833 18.3223 29.7611 17.5 28.75 17.5ZM28.75 20.25C28.244 20.25 27.8333 19.8384 27.8333 19.3333C27.8333 18.8283 28.244 18.4167 28.75 18.4167C29.256 18.4167 29.6666 18.8283 29.6666 19.3333C29.6666 19.8384 29.256 20.25 28.75 20.25Z" fill="white"/>
<path d="M34.25 12C33.2389 12 32.4166 12.8223 32.4166 13.8333C32.4166 14.8444 33.2389 15.6667 34.25 15.6667C35.2611 15.6667 36.0833 14.8444 36.0833 13.8333C36.0833 12.8223 35.2611 12 34.25 12ZM34.25 14.75C33.744 14.75 33.3333 14.3384 33.3333 13.8333C33.3333 13.3283 33.744 12.9167 34.25 12.9167C34.756 12.9167 35.1666 13.3283 35.1666 13.8333C35.1666 14.3384 34.756 14.75 34.25 14.75Z" fill="white"/>
<path d="M33.6029 14.4805C33.4241 14.3017 33.1335 14.3017 32.9548 14.4805L29.3981 18.0372C29.2194 18.2159 29.2194 18.5065 29.3981 18.6852C29.4879 18.7742 29.6053 18.8191 29.7226 18.8191C29.839 18.8191 29.9564 18.7751 30.0462 18.6852L33.6029 15.1286C33.7816 14.9498 33.7816 14.6592 33.6029 14.4805Z" fill="white"/>
<path d="M27.6417 18.2755L24.6974 17.4358C24.4508 17.3643 24.2006 17.5073 24.1318 17.7511C24.0621 17.995 24.2033 18.248 24.4462 18.3176L27.3905 19.1573C27.4327 19.1692 27.4749 19.1747 27.5161 19.1747C27.716 19.1747 27.8993 19.0436 27.957 18.842C28.0267 18.599 27.8856 18.3451 27.6417 18.2755Z" fill="white"/>
<path d="M22.535 18.0711C22.3774 17.8731 22.0895 17.841 21.8915 17.9977L18.4357 20.7532C18.2377 20.9118 18.2047 21.1996 18.3633 21.3976C18.454 21.5113 18.5878 21.57 18.7217 21.57C18.8216 21.57 18.9224 21.537 19.0068 21.471L22.4626 18.7155C22.6606 18.5569 22.6936 18.2691 22.535 18.0711Z" fill="white"/>
</g>
<defs>
<filter id="filter0_d" x="0" y="0" width="52" height="52" filterUnits="userSpaceOnUse" color-interpolation-filters="sRGB">
<feFlood flood-opacity="0" result="BackgroundImageFix"/>
<feColorMatrix in="SourceAlpha" type="matrix" values="0 0 0 0 0 0 0 0 0 0 0 0 0 0 0 0 0 0 127 0"/>
<feOffset dy="3"/>
<feGaussianBlur stdDeviation="2"/>
<feColorMatrix type="matrix" values="0 0 0 0 1 0 0 0 0 0.419608 0 0 0 0 0.0313726 0 0 0 0.3 0"/>
<feBlend mode="normal" in2="BackgroundImageFix" result="effect1_dropShadow"/>
<feBlend mode="normal" in="SourceGraphic" in2="effect1_dropShadow" result="shape"/>
</filter>
<clipPath id="clip0">
<rect width="22" height="22" fill="white" transform="translate(15 12)"/>
</clipPath>
</defs>
</svg>
