<svg width="140" height="42" viewBox="0 0 140 42" fill="none" xmlns="http://www.w3.org/2000/svg">
<path d="M47.5292 15.764C44.6778 15.764 42.5275 18.0106 42.5275 20.9941C42.5275 23.9776 44.7004 26.2242 47.5807 26.2242C50.4312 26.2242 52.5815 23.9776 52.5815 20.9941C52.5815 18.0106 50.4095 15.764 47.5292 15.764ZM61.9797 0.212921H0V41.9999H61.9797L76.6163 21.1514L61.9797 0.212921ZM32.4083 27.6099L32.2647 27.7313C29.9508 29.6813 27.272 30.6698 24.3031 30.6698C21.4959 30.6698 18.9634 29.6948 17.1727 27.9245C15.3982 26.1685 14.4198 23.7071 14.4198 20.9941C14.4198 18.388 15.4136 15.9617 17.2206 14.1644C19.0538 12.3303 21.5574 11.3202 24.2814 11.3202C27.3533 11.3202 29.4774 12.0607 31.6259 13.875L31.9322 14.1338L28.9118 17.7482L28.5983 17.4885C27.281 16.3966 26.1299 15.764 24.1468 15.764C21.5167 15.764 19.3772 18.1103 19.3772 20.9941C19.3772 24.0549 21.5023 26.2754 24.4296 26.2754C25.718 26.2754 26.8636 25.9708 27.7571 25.3912V23.4474H23.7673V19.231H32.4083V27.6099ZM54.7029 27.8283C52.8436 29.6606 50.2957 30.6698 47.5292 30.6698C44.7627 30.6698 42.2203 29.6678 40.3799 27.8472C38.5674 26.0544 37.5691 23.6235 37.5691 20.9941C37.5609 19.7245 37.8076 18.466 38.2948 17.2925C38.7819 16.119 39.4997 15.0539 40.4061 14.1599C42.2654 12.3276 44.8133 11.3229 47.5807 11.3229C50.3481 11.3229 52.8887 12.3258 54.7291 14.1455C56.5416 15.9383 57.5399 18.3692 57.5399 20.9986C57.5476 22.2675 57.3006 23.5251 56.8135 24.6978C56.3264 25.8706 55.6088 26.9349 54.7029 27.8283Z" fill="#181C27"/>
<path d="M14.8027 21.0283C14.8027 16.0211 18.7239 11.9197 24.087 11.9197C27.2746 11.9197 29.1972 12.7752 31.0439 14.3352L28.59 17.2792C27.224 16.1469 26.0097 15.4927 23.9605 15.4927C21.1272 15.4927 18.8757 17.9837 18.8757 21.0283C18.8757 24.2491 21.1019 26.6143 24.2388 26.6143C25.6555 26.6143 26.9204 26.2621 27.907 25.5575V23.0413H23.9858V19.6912H31.6764V27.3404C29.8549 28.8753 27.3505 30.1334 24.1123 30.1334C18.5974 30.1334 14.8027 26.2836 14.8027 21.0283Z" fill="white" stroke="white" stroke-miterlimit="10"/>
<path d="M38.2937 21.1514C38.2937 16.1441 42.2691 12.0427 47.7298 12.0427C53.1905 12.0427 57.1153 16.0938 57.1153 21.1514C57.1153 26.1586 53.1399 30.26 47.6792 30.26C42.2185 30.26 38.2937 26.2089 38.2937 21.1514ZM53.0423 21.1514C53.0423 18.1319 50.8161 15.6157 47.6792 15.6157C44.5423 15.6157 42.3667 18.0816 42.3667 21.1514C42.3667 24.1708 44.5929 26.687 47.7298 26.687C50.8667 26.687 53.0423 24.2211 53.0423 21.1514Z" fill="white" stroke="white" stroke-miterlimit="10"/>
<path d="M140 0H78.0972V41.787H140V0Z" fill="#FF6C00"/>
<path d="M97.1689 12.5244H101.065V30.1378H97.1689V12.5244Z" fill="white" stroke="white" stroke-miterlimit="10"/>
<path d="M112.59 16.0974H107.201V12.5244H121.874V16.0974H116.486V30.1378H112.59V16.0974Z" fill="white" stroke="white" stroke-miterlimit="10"/>
</svg>
